<svg xmlns="http://www.w3.org/2000/svg" width="33" height="40" viewBox="0 0 33 40">
    <g fill="#FFF" fill-rule="nonzero">
        <path d="M16.016 6.25c-5.385 0-9.766 4.38-9.766 9.766 0 5.384 4.38 9.765 9.766 9.765.91 0 1.81-.125 2.678-.372a1.562 1.562 0 1 0-.856-3.006 6.648 6.648 0 0 1-8.463-6.388 6.648 6.648 0 0 1 6.64-6.64 6.648 6.648 0 0 1 6.363 8.552 1.562 1.562 0 0 0 2.993.897A9.773 9.773 0 0 0 16.016 6.25z"/>
        <path d="M27.334 4.685A15.912 15.912 0 0 0 16.016 0 15.911 15.911 0 0 0 4.697 4.685 15.914 15.914 0 0 0 0 16c.003 3.114.868 6.035 2.644 8.931 1.538 2.508 3.536 4.696 5.651 7.012 2.074 2.271 4.218 4.62 5.931 7.33.286.452.785.727 1.32.727h.938c.536 0 1.035-.275 1.321-.728 1.713-2.71 3.857-5.058 5.931-7.329 2.115-2.316 4.113-4.504 5.651-7.012 1.776-2.896 2.641-5.817 2.644-8.934a15.911 15.911 0 0 0-4.697-11.312zm-5.905 25.15c-1.844 2.02-3.742 4.098-5.413 6.488-1.672-2.39-3.57-4.468-5.413-6.487C6.593 25.446 3.13 21.653 3.125 16c.008-7.1 5.791-12.875 12.89-12.875 7.1 0 12.883 5.776 12.891 12.872-.005 5.656-3.468 9.448-7.477 13.839z"/>
    </g>
</svg>
