<svg width="32" height="32" viewBox="0 0 32 32" fill="none" xmlns="http://www.w3.org/2000/svg">
<path fill-rule="evenodd" clip-rule="evenodd" d="M16 32C24.8365 32 32 24.8366 32 16C32 7.16344 24.8365 0 16 0C7.16345 0 0 7.16344 0 16C0 24.8366 7.16345 32 16 32ZM19.2976 8.048C18.4448 8.008 18.1736 8 16 8C13.8264 8 13.5552 8.0104 12.7024 8.048C11.8496 8.088 11.2704 8.2216 10.76 8.42C10.226 8.62058 9.74219 8.93539 9.34241 9.3424C8.93506 9.74186 8.62024 10.2257 8.42004 10.76C8.22156 11.2704 8.08801 11.8496 8.04797 12.7024C8.00806 13.5552 8 13.8264 8 16C8 18.1736 8.01038 18.4448 8.04797 19.2976C8.08801 20.1496 8.22156 20.7304 8.42004 21.24C8.62073 21.774 8.93555 22.2578 9.34241 22.6576C9.74207 23.0648 10.2258 23.3796 10.76 23.58C11.2704 23.7776 11.8503 23.912 12.7024 23.952C13.5552 23.992 13.8264 24 16 24C18.1736 24 18.4448 23.9896 19.2976 23.952C20.1497 23.912 20.7303 23.7776 21.24 23.58C21.7738 23.379 22.2576 23.0643 22.6576 22.6576C23.0649 22.2581 23.3798 21.7742 23.58 21.24C23.7776 20.7296 23.912 20.1496 23.952 19.2976C23.9919 18.4448 24 18.1736 24 16C24 13.8264 23.9896 13.5552 23.952 12.7024C23.912 11.8504 23.7776 11.2696 23.58 10.76C23.3792 10.2261 23.0645 9.74232 22.6576 9.3424C22.2128 8.8984 21.7679 8.6232 21.24 8.42C20.7296 8.2216 20.1497 8.088 19.2976 8.048ZM13.1716 13.1716C13.9218 12.4214 14.9391 12 16 12C17.0609 12 18.0782 12.4214 18.8284 13.1716C19.5786 13.9217 20 14.9391 20 16C20 17.0609 19.5786 18.0783 18.8284 18.8284C18.0782 19.5786 17.0609 20 16 20C14.9391 20 13.9218 19.5786 13.1716 18.8284C12.4214 18.0783 12 17.0609 12 16C12 14.9391 12.4214 13.9217 13.1716 13.1716ZM20.9071 11.0929C21.0946 11.2804 21.2 11.5348 21.2 11.8C21.2 12.0652 21.0946 12.3196 20.9071 12.5071C20.7196 12.6946 20.4652 12.8 20.2 12.8C19.9348 12.8 19.6804 12.6946 19.4929 12.5071C19.3053 12.3196 19.2 12.0652 19.2 11.8C19.2 11.5348 19.3053 11.2804 19.4929 11.0929C19.6804 10.9054 19.9348 10.8 20.2 10.8C20.4652 10.8 20.7196 10.9054 20.9071 11.0929ZM17.697 14.3029C17.2469 13.8529 16.6365 13.6 16 13.6C15.3635 13.6 14.7531 13.8529 14.303 14.3029C13.8529 14.753 13.6 15.3635 13.6 16C13.6 16.6365 13.8529 17.247 14.303 17.6971C14.7531 18.1471 15.3635 18.4 16 18.4C16.6365 18.4 17.2469 18.1471 17.697 17.6971C18.1471 17.247 18.4 16.6365 18.4 16C18.4 15.3635 18.1471 14.753 17.697 14.3029Z" fill="white"/>
</svg>
