<svg xmlns="http://www.w3.org/2000/svg" width="637" height="274" viewBox="0 0 637 274">
    <g fill="none" fill-rule="evenodd">
        <g fill="#74FF9E" fill-rule="nonzero">
            <path d="M547.505 175.996c-3.566 0-6.453-2.927-6.453-6.536V99.074c0-3.609 2.888-6.536 6.453-6.536 3.567 0 6.454 2.927 6.454 6.536v70.386c0 3.61-2.887 6.536-6.454 6.536z"/>
            <path d="M588.152 93.078c0 22.748-18.199 41.189-40.648 41.189-22.45 0-40.648-18.441-40.648-41.19 0-22.748 18.198-92.676 40.648-92.676 22.45.001 40.648 69.928 40.648 92.677z"/>
        </g>
        <path fill="#05CE7C" fill-rule="nonzero" d="M138.727 380L446 215.386l-7.78-16.791c-74.4 0-203.507-75.65-438.22-48.849 0 82.696 30.297 158.267 80.303 216.387 31.41 7.505 58.424 13.867 58.424 13.867z"/>
        <path fill="#53DC92" fill-rule="nonzero" d="M437.537 198.094c-68.321 0-182.777-63.041-382.537-53.013C232.602 145.233 341.516 224 397.289 224l15.58-5.758L438 199.087l-.463-.993z"/>
        <path fill="#74FF9E" fill-rule="nonzero" d="M29 285.158C81.028 400.613 196.774 481 331.316 481 514.5 481 663 332.068 663 148.351c0-3.472-.155-6.905-.26-10.351-205.11.943-298.118 145.49-633.74 145.49v1.668z"/>
        <g fill="#53DC92" fill-rule="nonzero">
            <path d="M453.003 218.131c-4.116 0-7.45-3.327-7.45-7.432v-80.05c0-4.104 3.332-7.431 7.45-7.431 4.117 0 7.448 3.327 7.448 7.431v80.05c0 4.105-3.332 7.432-7.448 7.432z"/>
            <path d="M499.917 123.831c0 25.87-21.006 46.843-46.917 46.843s-46.917-20.972-46.917-46.843c0-25.87 21.006-105.4 46.917-105.4s46.917 79.528 46.917 105.4z"/>
        </g>
        <path fill="#53DC92" fill-rule="nonzero" d="M660 171c-145.318.715-353.647 202.437-557 218.962C162.231 446.29 242.075 481 330.14 481 505.47 481 648.84 344.068 660 171z"/>
        <path fill="#53DC92" d="M180.175 139.107a7.456 7.456 0 0 1 4.354-5.905l1.929 7.09a1.067 1.067 0 0 0 1.311.75 1.078 1.078 0 0 0 .747-1.325l-1.93-7.092a7.286 7.286 0 0 1 1.807-.004c4.032.495 6.905 4.21 6.406 8.281-.5 4.071-4.187 6.98-8.219 6.486-4.032-.495-6.905-4.21-6.405-8.281zm-10.126-17.929l4.141-2.917a2.725 2.725 0 0 0 1.222-1.959c.183-1.49-.865-2.846-2.342-3.028l-7.513-.922a.423.423 0 0 0-.293-.176l-3.231-.397 5.495-4.337.76-.6 4.953 5.145a.767.767 0 0 0 .147.118l8.424 5.25c.045.028.091.05.14.067a2.287 2.287 0 0 0 1.949 2.73 2.27 2.27 0 0 0 2.113-.927l3.66.45a1.935 1.935 0 0 1 1.672 2.161 1.935 1.935 0 0 1-2.145 1.694l-19.152-2.352zm-3.511 13.182a4.354 4.354 0 0 0-1.907-.712 4.403 4.403 0 0 0-4.226 1.982l1.03-8.383 5.99-4.22 11.227 1.378-12.114 9.955zm-10.973-9.862a.422.422 0 0 0 .554.027l.31-.245-.431 10.773-2.674-.329a11.615 11.615 0 0 0-1.933-6.796l4.174-3.43zm-11.118 9.136l3.711-3.05a7.441 7.441 0 0 1 1.037 3.633l-4.748-.583zm-9.93-.133c.5-4.072 4.187-6.981 8.219-6.486a7.277 7.277 0 0 1 4.078 1.9l-5.325 4.376c-.422.347-.6.861-.463 1.342.136.48.556.82 1.096.886l6.81.836c-.952 3.504-4.337 5.878-8.01 5.427-4.03-.495-6.904-4.21-6.404-8.281zm29.091-13.114l-2.093-.257c.002-.01.006-.019.007-.029a.432.432 0 0 0-.087-.317l-.385-.498 3.291.404a.425.425 0 0 0 .167-.012l-.9.71zm3.065-2.418l-1.908 1.506a.433.433 0 0 0 .052-.16l.19-1.55 1.666.204zm18.81 10.604l-.937-3.444 4.392.539c2.22.273 4.25-1.33 4.526-3.572.275-2.242-1.307-4.287-3.527-4.56l-2.575-.316c.009-.037.088-.65.237-1.84a1.396 1.396 0 0 0-1.208-1.562l-4.335-.532-6.4-4.611-5.854-7.57c.644.358 1.364.6 2.139.696 3.253.4 6.217-1.94 6.62-5.225l.359-2.918.027-.222.253-2.06c.404-3.293-2.012-5.417-5.265-5.816a9.342 9.342 0 0 0-.396-.04c-3.127-.227-5.715 1.112-6.1 4.238l-4.972-.437a1.144 1.144 0 0 0-1.27 1.003c-.078.63.365 1.203.99 1.28l4.951.608-.026.213-.332 2.704a6.021 6.021 0 0 0-.043.828 5.833 5.833 0 0 0 .158 1.293 6.66 6.66 0 0 0 .252.811c-.291-.085-.654-.204-1.037-.25a3.043 3.043 0 0 0-1.968.43c-.21.138-.252.168-.294.201a415535.934 415535.934 0 0 1-15.244 12.03 3.127 3.127 0 0 0-.534 4.347l6.178 7.987-4.201 3.452a11.379 11.379 0 0 0-6.802-3.386c-6.304-.774-12.048 3.76-12.83 10.125-.781 6.366 3.695 12.153 10 12.927 5.946.73 11.393-3.263 12.647-9.062l2.334.287-.216 1.753a.717.717 0 0 0 .619.8l2.91.357 1.531.188a4.388 4.388 0 0 0 3.306 2.24c2.417.296 4.619-1.442 4.919-3.882a4.46 4.46 0 0 0-.491-2.65l13.615-11.19.667.082 1.17 4.304a11.624 11.624 0 0 0-7.354 9.452c-.781 6.366 3.696 12.153 10 12.927 6.304.774 12.047-3.758 12.829-10.124.782-6.366-3.695-12.154-9.999-12.928a11.4 11.4 0 0 0-3.418.095z"/>
    </g>
</svg>
