<svg xmlns="http://www.w3.org/2000/svg" width="754" height="291" viewBox="0 0 754 291">
    <g fill="none" fill-rule="nonzero">
        <path fill="#53DC92" d="M-39.08 111.81c-.545 8.526-.92 17.1-.92 25.763 0 57.72 12.41 112.508 34.54 161.993 107.02 11.987 251.826 10.362 285.504 6.966 40.005-4.033 148.82-21.647 166.423-29.653 17.603-8.005 7.824-62.447 7.824-62.447-151.843 0-226.918-148.544-493.37-102.621z"/>
        <path fill="#74FF9E" d="M455.287 214.32c-152.078 0-227.27-148.394-494.136-102.519-.09 1.397-.072 2.822-.151 4.222C196.74 74.56 266.6 231.988 404.842 231.988c0 0 5.186 34.433.62 55.012 20.125-3.924 36.137-7.64 41.99-10.296 17.629-7.997 7.835-62.384 7.835-62.384z"/>
        <path fill="#05CE7C" d="M754 163c-257.492.245-355.062 102.493-563 102.493v86.488L546.26 487C663.415 423.688 745.057 303.229 754 163z"/>
        <path fill="#6BEE97" d="M191 264.155v28.351c16.54 6.825 16.183 9.494 47.048 9.494C329.98 302 500.792 197.445 576 180c-139.816 29.458-232.901 84.155-385 84.155z"/>
        <path fill="#74FF9E" d="M440.401 368.108c-100.328-7.037-212.534-140.854-467.45-140.854l-1.684 3.617c.95 3.95 2.023 7.848 3.088 11.751 182.366 1.408 272.05 125.518 466.068 125.518l-.022-.032z"/>
        <g fill="#53DC92">
            <path d="M72.08 114.568c-2.365 0-4.28-1.929-4.28-4.308v-46.4c0-2.38 1.915-4.309 4.28-4.309s4.28 1.929 4.28 4.308v46.401c0 2.378-1.915 4.308-4.28 4.308z"/>
            <path d="M98.403 60.544c0 14.644-11.786 26.516-26.324 26.516-14.539 0-26.325-11.872-26.325-26.516C45.754 45.901 57.54.886 72.08.886c14.538 0 26.324 45.015 26.324 59.658z"/>
        </g>
        <g fill="#6BEE97">
            <path d="M251.412 280.526c-2.462 0-4.455-1.982-4.455-4.423v-47.64c0-2.442 1.994-4.424 4.455-4.424 2.46 0 4.455 1.982 4.455 4.423v47.64c0 2.444-1.994 4.424-4.455 4.424z"/>
            <path d="M278.812 225.06c0 15.035-12.268 27.224-27.402 27.224-15.132 0-27.4-12.187-27.4-27.223 0-15.034 12.266-61.251 27.4-61.251 15.133-.002 27.402 46.215 27.402 61.25z"/>
        </g>
        <g fill="#74FF9E">
            <path d="M123.423 116.894a2.66 2.66 0 0 1-2.662-2.657V85.618a2.659 2.659 0 0 1 2.662-2.656 2.66 2.66 0 0 1 2.663 2.656v28.62a2.659 2.659 0 0 1-2.663 2.655z"/>
            <path d="M139.798 83.574c0 9.033-7.332 16.354-16.375 16.354-9.042 0-16.374-7.323-16.374-16.354 0-9.032 7.332-36.795 16.374-36.795 9.043 0 16.375 27.765 16.375 36.795z"/>
        </g>
    </g>
</svg>
