<svg xmlns="http://www.w3.org/2000/svg" width="160" height="160" viewBox="0 0 160 160">
    <g fill="#FFF" fill-rule="evenodd">
        <path d="M144.65 68.216l-11.995.097c-.773 0-1.45-.54-1.648-1.315-2.45-9.634-5.21-10.837-3.614-12.458l15.51-15.763a6.42 6.42 0 0 0-.073-9.085l-10.22-10.055a6.42 6.42 0 0 0-9.085.073l-14.55 14.788c-.526.535-1.406.663-2.036.287-8.638-5.157-11.41-3.99-11.43-6.303l-.178-22.11C95.3 2.858 92.42 0 88.907 0l-14.39.116c-3.513.028-6.371 2.91-6.371 6.423l.167 20.806c0 .773-.54 1.45-1.315 1.648-9.708 2.468-10.806 5.24-12.458 3.614l-15.762-15.51a6.42 6.42 0 0 0-9.085.073L19.636 27.39a6.42 6.42 0 0 0 .073 9.085c15.34 15.355 15.3 14.477 15.3 15.766 0 1.16-2.41 3.521-4.936 11.077a1.702 1.702 0 0 1-1.592 1.173l-22.11.179C2.858 64.698 0 67.58 0 71.093l.116 14.39c.028 3.513 2.91 6.371 6.423 6.371l20.806-.167c.773 0 1.45.54 1.648 1.315 2.45 9.634 5.21 10.837 3.614 12.458l-15.51 15.763a6.42 6.42 0 0 0 .073 9.085c3.48 3.161 3.805 4.378 5.419 4.378 2.102 0 3.172-2.567 1.66-4.055 0 0-4.263-3.702-4.263-4.903 0-1.309.117-.566 15.995-16.947a6.378 6.378 0 0 0 1.84-4.501c0-3.144-2.108-4.06-4.24-12.445-.73-2.875-3.295-4.883-6.236-4.883l-20.806.168a1.694 1.694 0 0 1-1.689-1.676l-.116-14.351c0-.924.752-1.682 1.676-1.689l22.11-.179a6.437 6.437 0 0 0 6.045-4.407 47.755 47.755 0 0 1 4.285-9.33c1.53-2.562 1.038-5.801-1.032-7.838-15.377-15.383-15.292-14.47-15.292-15.755 0-.446.172-.867.485-1.185 10.498-10.42 10.002-10.724 11.26-10.724.446 0 .867.172 1.185.486L51.218 35.98a6.378 6.378 0 0 0 4.501 1.84c3.144 0 4.061-2.108 12.445-4.24 2.875-.731 4.883-3.295 4.883-6.237L72.88 6.54c0-.924.751-1.681 1.675-1.689l14.352-.116c.924 0 1.681.752 1.689 1.676l.178 22.11a6.437 6.437 0 0 0 4.408 6.045c8.339 2.787 9.195 5.18 12.577 5.18a6.48 6.48 0 0 0 4.59-1.927c15.383-15.377 14.471-15.292 15.755-15.292 1.23 0 .697.241 11.405 10.54.666.657.673 1.726.02 2.39l-15.51 15.762a6.378 6.378 0 0 0-1.84 4.501c0 3.144 2.108 4.061 4.24 12.445.73 2.875 3.295 4.883 6.236 4.883l12.032-.096a2.367 2.367 0 1 0-.038-4.735z"/>
        <path d="M159.883 74.518a6.411 6.411 0 0 0-5.359-6.284 2.367 2.367 0 1 0-.78 4.67c.807.134 1.399.83 1.405 1.652l.116 14.351c0 .924-.752 1.682-1.676 1.689l-22.11.179a6.437 6.437 0 0 0-6.044 4.407 47.755 47.755 0 0 1-4.286 9.33c-1.529 2.562-1.038 5.801 1.032 7.838l14.788 14.55c.666.656.673 1.724.02 2.39-10.498 10.42-10.003 10.723-11.26 10.723-1.31 0-.567-.116-16.948-15.995a6.378 6.378 0 0 0-4.501-1.84c-3.144 0-4.06 2.109-12.445 4.24-2.875.731-4.883 3.296-4.883 6.237l.168 20.806c0 .923-.752 1.68-1.676 1.688l-14.351.116a1.694 1.694 0 0 1-1.689-1.675l-.179-22.11a6.437 6.437 0 0 0-4.407-6.045 47.756 47.756 0 0 1-9.33-4.286c-2.562-1.528-5.801-1.037-7.838 1.032-15.383 15.377-14.47 15.293-15.755 15.293-.273 0-.677-.065-1.057-.371a2.367 2.367 0 0 0-2.972 3.685c2.485 2.004 6.22 1.93 8.608-.499l14.55-14.788c.527-.534 1.407-.663 2.036-.287 8.638 5.158 11.41 3.99 11.43 6.303l.178 22.11c.029 3.514 2.91 6.372 6.424 6.372l14.39-.116c3.513-.028 6.371-2.91 6.371-6.423l-.167-20.806c0-.773.54-1.45 1.315-1.648 9.71-2.47 10.807-5.24 12.458-3.614l15.763 15.51a6.42 6.42 0 0 0 9.085-.073l10.055-10.22a6.42 6.42 0 0 0-.073-9.085c-15.341-15.355-15.3-14.477-15.3-15.766 0-1.16 2.41-3.52 4.935-11.077a1.702 1.702 0 0 1 1.593-1.173l22.11-.178c3.513-.029 6.372-2.91 6.372-6.424l-.116-14.388z"/>
        <path fill-rule="nonzero" d="M61.257 43.268a2.368 2.368 0 0 0 2.153 4.217C87.8 35.043 116.514 52.945 116.514 80c0 4.186-.723 8.323-2.146 12.3a36.322 36.322 0 0 1-6.288 11.007 11.893 11.893 0 0 0-9.135-8.724v-9.905h1.57c1.792 0 3.367-1.219 3.742-2.898l1.816-8.121a3.519 3.519 0 0 0 0-1.54l-1.816-8.125c-.375-1.676-1.95-2.895-3.743-2.895h-7.872c-1.793 0-3.368 1.219-3.744 2.895l-1.815 8.124a3.505 3.505 0 0 0 0 1.538l1.815 8.124c.376 1.68 1.951 2.898 3.744 2.898h1.569v9.905c-5.41 1.098-9.495 5.893-9.495 11.622v10c-3.168.42-6.437.412-9.57-.02V88.45a15.878 15.878 0 0 0 8.203-13.91 15.81 15.81 0 0 0-6.054-12.481 4.41 4.41 0 0 0-4.697-.508 4.433 4.433 0 0 0-2.521 4.02v6.951a2.625 2.625 0 0 1-2.624 2.624 2.625 2.625 0 0 1-2.623-2.624v-6.95a4.427 4.427 0 0 0-2.518-4.018 4.437 4.437 0 0 0-4.72.52 15.822 15.822 0 0 0-6.031 12.352 15.883 15.883 0 0 0 8.203 14.011v21.938c-9.99-6.67-16.277-18.017-16.277-30.375 0-4.185.722-8.323 2.146-12.3a36.484 36.484 0 0 1 10.42-15.256 2.369 2.369 0 0 0-3.104-3.58 41.238 41.238 0 0 0-11.773 17.241A41.063 41.063 0 0 0 38.752 80c0 35.698 43.11 55.12 69.688 29.841a41.116 41.116 0 0 0 10.385-15.946A41.063 41.063 0 0 0 121.249 80c0-30.782-32.69-50.658-59.992-36.732zm9.154 43.708v28.247a36.43 36.43 0 0 1-5.913-2.178V86.967c0-.944-.561-1.8-1.426-2.172-4.148-1.793-6.809-5.85-6.777-10.334a11.109 11.109 0 0 1 3.8-8.311v6.372c0 4.06 3.302 7.358 7.358 7.358 4.056 0 7.358-3.298 7.358-7.358v-6.375a11.104 11.104 0 0 1 3.803 8.393 11.15 11.15 0 0 1-6.77 10.258 2.37 2.37 0 0 0-1.433 2.178zm22.928-7.033l-1.575-7.055 1.575-7.054h6.478l1.578 7.054-1.578 7.055h-6.478zm10.366 27.8a36.722 36.722 0 0 1-14.255 7.518v-9.056a7.131 7.131 0 0 1 7.128-7.127 7.132 7.132 0 0 1 7.127 7.127v1.537z"/>
    </g>
</svg>
