<svg xmlns="http://www.w3.org/2000/svg" width="160" height="160" viewBox="0 0 160 160">
    <g fill="#FFF" fill-rule="nonzero">
        <path d="M17.378 137.224c-4.057 0-7.358 3.28-7.358 7.312s3.3 7.313 7.358 7.313c4.057 0 7.358-3.28 7.358-7.313 0-4.032-3.301-7.312-7.358-7.312zm0 9.957a2.656 2.656 0 0 1-2.662-2.645 2.656 2.656 0 0 1 2.662-2.645 2.656 2.656 0 0 1 2.661 2.645 2.656 2.656 0 0 1-2.661 2.645z"/>
        <path d="M160 82.303c0-6.777-5.548-12.29-12.368-12.29h-36.008a2.341 2.341 0 0 0-2.348 2.333 2.341 2.341 0 0 0 2.348 2.334h36.008c4.23 0 7.671 3.42 7.671 7.623 0 4.204-3.441 7.624-7.67 7.624h-17.535a2.341 2.341 0 0 0-2.349 2.334 2.341 2.341 0 0 0 2.349 2.334h12.524c4.23 0 7.671 3.42 7.671 7.623 0 4.204-3.441 7.624-7.67 7.624h-12.525a2.341 2.341 0 0 0-2.349 2.334 2.341 2.341 0 0 0 2.349 2.334h7.514c4.23 0 7.672 3.42 7.672 7.623 0 4.204-3.442 7.624-7.671 7.624h-7.515a2.341 2.341 0 0 0-2.349 2.334 2.341 2.341 0 0 0 2.349 2.334h2.505c4.23 0 7.671 3.42 7.671 7.623 0 4.204-3.441 7.624-7.671 7.624H56.577a7.71 7.71 0 0 1-2.426-.391l-19.395-6.425v-54.58c2.618-2.532 11.663-11.55 20.831-23.878 13.892-18.678 21.192-35.522 21.72-50.1 2.033-.547 5.917-1.174 9.185.734 3.39 1.98 5.478 6.274 6.204 12.763 2.39 21.374-9.618 43.2-9.739 43.417-.844 1.527.291 3.468 2.053 3.468h15.343a2.341 2.341 0 0 0 2.348-2.334 2.341 2.341 0 0 0-2.348-2.334H88.82c3.447-7.274 10.543-24.849 8.544-42.732-.9-8.056-3.772-13.538-8.534-16.296-6.704-3.883-14.438-.667-14.764-.528a2.334 2.334 0 0 0-1.424 2.145c0 17.347-11.303 36.2-20.785 48.96-6.506 8.754-13.07 15.916-17.101 20.077v-4.314a2.341 2.341 0 0 0-2.349-2.334H2.348A2.341 2.341 0 0 0 0 77.324v79.659a2.341 2.341 0 0 0 2.348 2.334h30.06a2.341 2.341 0 0 0 2.348-2.334v-9.209l17.91 5.933c1.264.419 2.58.63 3.911.63h76.026c6.82 0 12.368-5.513 12.368-12.29a12.2 12.2 0 0 0-3.271-8.316c4.817-1.682 8.28-6.244 8.28-11.599a12.2 12.2 0 0 0-3.27-8.316c4.817-1.682 8.28-6.244 8.28-11.598a12.2 12.2 0 0 0-3.27-8.316c4.816-1.682 8.28-6.245 8.28-11.599zM30.059 154.65H4.697V79.66h25.362v74.99z"/>
        <path d="M120.078 12.757c-3.951 0-7.671-5.697-7.671-10.113A2.341 2.341 0 0 0 110.058.31a2.341 2.341 0 0 0-2.348 2.334c0 4.416-3.72 10.113-7.671 10.113a2.341 2.341 0 0 0-2.349 2.334 2.341 2.341 0 0 0 2.349 2.334c3.951 0 7.671 5.697 7.671 10.113a2.341 2.341 0 0 0 2.348 2.334 2.341 2.341 0 0 0 2.349-2.334c0-4.416 3.72-10.113 7.671-10.113a2.341 2.341 0 0 0 2.349-2.334 2.341 2.341 0 0 0-2.349-2.334zm-10.02 6.624c-.982-1.662-2.236-3.149-3.69-4.29 1.454-1.141 2.708-2.628 3.69-4.29.983 1.662 2.238 3.149 3.692 4.29-1.454 1.141-2.709 2.627-3.691 4.29zM42.427 40.14c-3.952 0-7.672-5.697-7.672-10.113a2.341 2.341 0 0 0-2.348-2.334 2.341 2.341 0 0 0-2.349 2.334c0 4.416-3.72 10.113-7.67 10.113a2.341 2.341 0 0 0-2.35 2.334 2.341 2.341 0 0 0 2.35 2.333c3.95 0 7.67 5.698 7.67 10.113a2.341 2.341 0 0 0 2.349 2.334 2.341 2.341 0 0 0 2.348-2.334c0-4.415 3.72-10.113 7.672-10.113a2.341 2.341 0 0 0 2.348-2.333 2.341 2.341 0 0 0-2.348-2.334zm-10.02 6.623c-.982-1.662-2.237-3.148-3.69-4.29 1.453-1.14 2.708-2.627 3.69-4.29.983 1.663 2.237 3.15 3.691 4.29-1.454 1.142-2.708 2.628-3.69 4.29zM157.652 47.608c-3.952 0-7.672-5.697-7.672-10.113a2.341 2.341 0 0 0-2.348-2.334 2.341 2.341 0 0 0-2.349 2.334c0 4.416-3.72 10.113-7.67 10.113a2.341 2.341 0 0 0-2.35 2.334 2.341 2.341 0 0 0 2.35 2.333c3.95 0 7.67 5.698 7.67 10.114a2.341 2.341 0 0 0 2.349 2.333 2.341 2.341 0 0 0 2.348-2.333c0-4.416 3.72-10.114 7.672-10.114A2.341 2.341 0 0 0 160 49.942a2.341 2.341 0 0 0-2.348-2.334zm-10.02 6.623c-.982-1.662-2.237-3.148-3.69-4.29 1.453-1.14 2.708-2.627 3.69-4.29.983 1.663 2.237 3.15 3.691 4.29-1.454 1.142-2.708 2.628-3.69 4.29z"/>
    </g>
</svg>
