<svg xmlns="http://www.w3.org/2000/svg" width="218" height="160" viewBox="0 0 218 160">
    <g fill="#FFF" fill-rule="evenodd">
        <path fill-rule="nonzero" d="M176.382 51.287h-13.716l4.132-47.45c.008-.086.01-.171.01-.256V3.56v-.003c0-1.292-.779-2.43-1.924-2.925l-.029-.014a3.108 3.108 0 0 0-.218-.08c-.028-.009-.054-.02-.082-.028-.06-.019-.123-.033-.184-.048-.044-.01-.085-.022-.13-.03-.053-.012-.11-.018-.165-.026-.052-.008-.103-.017-.155-.022-.01 0-.017-.002-.026-.003-.056-.005-.112-.004-.167-.007-.038 0-.074-.005-.112-.005H98.302a3.193 3.193 0 0 0-3.191 3.191 3.195 3.195 0 0 0 3.191 3.192h61.835l-6.351 72.925c0 .006 0 .012-.002.017l-1.602 18.4H41.284l1.855-19.148h21.115a3.191 3.191 0 1 0 0-6.383H43.758l3.916-40.423h33.607a3.191 3.191 0 1 0 0-6.383H48.293l1.842-19.005h35.401a3.198 3.198 0 0 0 3.192-3.192A3.195 3.195 0 0 0 85.536.37H47.234c-1.5 0-2.8 1.055-3.114 2.518l-.009.032c-.016.08-.026.16-.037.242l-.011.077-.002.015-2.18 22.504H3.19a3.191 3.191 0 1 0 0 6.383h38.07l-3.916 40.423H25.958a3.191 3.191 0 1 0 0 6.383h10.769l-2.133 22.01v.01l-3.298 34.033-.002.011v.013c-.005.044-.005.087-.007.131-.003.06-.01.117-.01.176l.001.008c0 .082.006.163.012.244.003.026.002.052.005.078.008.083.022.164.037.245.005.024.007.048.011.071.013.061.03.12.046.18.011.043.02.086.033.127.004.011.01.023.012.034.155.475.417.902.76 1.25l.017.02c.034.033.071.064.107.096.22.202.468.373.74.507.057.028.113.058.17.082.018.008.037.013.055.02.08.031.16.062.243.088l.023.006c.094.028.19.053.287.073.013.002.026.003.038.006.093.017.186.032.28.041l.007.001c.105.01.208.016.311.016H48.685c1.569 11.894 11.766 21.107 24.084 21.107 12.316 0 22.514-9.213 24.082-21.108h51.192c1.569 11.895 11.766 21.108 24.083 21.108 12.316 0 22.515-9.213 24.084-21.108h14.218c.106 0 .211-.006.315-.016l.055-.008c.083-.01.166-.021.247-.037.035-.007.068-.016.103-.024a3.08 3.08 0 0 0 .186-.048l.123-.041c.053-.018.105-.037.157-.058a3.814 3.814 0 0 0 .395-.192 4.082 4.082 0 0 0 .248-.158c.044-.03.085-.062.127-.094l.105-.084c.043-.037.085-.076.126-.115.03-.028.06-.055.088-.084.044-.045.086-.093.128-.14l.068-.078a3.48 3.48 0 0 0 .132-.178l.044-.061c.052-.078.101-.158.146-.24l.01-.016c.047-.089.092-.18.131-.273l.03-.081c.026-.066.052-.132.074-.2.014-.045.024-.09.036-.135.014-.053.03-.106.041-.16.01-.048.017-.098.026-.147.007-.043.016-.085.022-.128.135-1.085 2.634-21.135 3.75-34.1l.003-.038c.322-3.737.527-6.885.527-8.811 0-22.877-18.611-41.49-41.489-41.49zm-14.273 6.384h13.057l-1.668 19.147h-13.056l1.667-19.147zm-89.34 95.575c-9.88 0-17.917-8.037-17.917-17.916 0-9.88 8.038-17.917 17.917-17.917 9.88 0 17.917 8.038 17.917 17.917 0 9.879-8.037 17.916-17.917 17.916zm99.357 0c-9.88 0-17.916-8.037-17.916-17.916 0-9.88 8.037-17.917 17.916-17.917 9.88 0 17.917 8.038 17.917 17.917 0 9.879-8.037 17.916-17.917 17.916zm35.475-21.109h-11.39c-1.568-11.896-11.767-21.109-24.084-21.109s-22.515 9.214-24.084 21.109h-51.19c-1.569-11.896-11.767-21.109-24.084-21.109s-22.515 9.214-24.084 21.109h-10.7l2.681-27.661h114.44v.001h.005c.107 0 .213-.006.318-.016.02-.002.038-.006.058-.009.083-.01.166-.021.248-.038.035-.007.07-.017.105-.025.063-.015.127-.03.19-.049.042-.013.082-.028.124-.043.053-.018.107-.037.159-.058.044-.018.087-.039.13-.059.048-.022.095-.043.14-.067.044-.023.087-.048.13-.073.044-.025.087-.051.13-.078l.12-.083a3.221 3.221 0 0 0 .35-.29 3.398 3.398 0 0 0 .292-.32 3.574 3.574 0 0 0 .265-.39c.021-.038.044-.076.063-.114.027-.05.05-.101.074-.153.019-.04.038-.081.055-.124.021-.05.038-.102.057-.153.015-.046.032-.091.046-.138.014-.05.026-.1.038-.15.013-.05.026-.101.036-.153.01-.05.016-.1.024-.152.007-.053.016-.105.021-.158.001-.008.003-.015.003-.023l1.6-18.361h16.494c9.779 0 14.189 5.066 18.857 10.43 3.853 4.426 8.153 9.364 15.464 10.57-.928 9.816-2.43 22.419-3.1 27.937zm3.647-34.334c-4.743-.966-7.66-4.3-11.196-8.362-4.42-5.078-9.818-11.276-20.163-12.431l1.65-18.957c16.921 2.503 29.95 17.119 29.95 34.724 0 1.197-.09 2.934-.241 5.026z"/>
        <path fill-rule="nonzero" d="M72.77 123.627c-6.453 0-11.703 5.25-11.703 11.702 0 6.453 5.25 11.702 11.702 11.702 6.453 0 11.702-5.249 11.702-11.702 0-6.452-5.25-11.702-11.702-11.702zm0 17.022a5.325 5.325 0 0 1-5.32-5.32 5.325 5.325 0 0 1 5.32-5.319 5.325 5.325 0 0 1 5.319 5.32 5.325 5.325 0 0 1-5.32 5.319zM172.126 123.627c-6.452 0-11.702 5.25-11.702 11.702 0 6.453 5.25 11.702 11.702 11.702s11.702-5.249 11.702-11.702c0-6.452-5.25-11.702-11.702-11.702zm0 17.022a5.325 5.325 0 0 1-5.32-5.32 5.325 5.325 0 0 1 5.32-5.319 5.325 5.325 0 0 1 5.32 5.32 5.325 5.325 0 0 1-5.32 5.319z"/>
        <path d="M30.213 51.288H14.61a3.191 3.191 0 1 0 0 6.383h15.603a3.191 3.191 0 1 0 0-6.383z"/>
    </g>
</svg>
