<svg width="32" height="32" viewBox="0 0 32 32" fill="none" xmlns="http://www.w3.org/2000/svg">
<path fill-rule="evenodd" clip-rule="evenodd" d="M16 32C24.8366 32 32 24.8366 32 16C32 7.16344 24.8366 0 16 0C7.16344 0 0 7.16344 0 16C0 24.8366 7.16344 32 16 32ZM22.1185 11.8988C22.7763 11.8212 23.4111 11.6588 24 11.4118C23.5564 12.0259 23.0057 12.5624 22.3633 12.9859C22.3709 13.12 22.3709 13.2471 22.3709 13.3812C22.3709 17.3835 19.0593 22 13.0325 22C11.1816 22 9.45315 21.4988 8 20.6376C8.26004 20.6659 8.52008 20.68 8.78012 20.68C10.2593 20.6866 11.6968 20.2285 12.8566 19.3812C12.1724 19.3697 11.5094 19.1606 10.9606 18.7832C10.4119 18.4059 10.0051 17.8794 9.79732 17.2776C10.2869 17.3667 10.7921 17.3498 11.2734 17.2282C9.77438 16.9529 8.64245 15.7247 8.64245 14.2565V14.2353C9.08604 14.4471 9.59082 14.5882 10.1338 14.5882C9.24665 14.0588 8.67304 13.1271 8.67304 12.0753C8.67304 11.5247 8.83365 11.0024 9.11664 10.5576C10.7304 12.3859 13.1549 13.5929 15.8776 13.72C15.8241 13.5012 15.7935 13.2682 15.7935 13.0282C15.7935 11.3553 17.262 10 19.0593 10C20.0229 10 20.8719 10.3529 21.4761 10.96C22.218 10.8188 22.9216 10.5718 23.5564 10.2188C23.3117 10.9318 22.7916 11.5247 22.1185 11.8988Z" fill="white"/>
</svg>
