<svg width="32" height="32" viewBox="0 0 32 32" fill="none" xmlns="http://www.w3.org/2000/svg">
<path fill-rule="evenodd" clip-rule="evenodd" d="M16 32C24.8366 32 32 24.8366 32 16C32 7.16344 24.8366 0 16 0C7.16344 0 0 7.16344 0 16C0 24.8366 7.16344 32 16 32ZM18.552 16L14.4 18.5714V13.4286L18.552 16ZM23.872 13.4886C23.824 12.8029 23.752 12.2629 23.648 11.86C23.448 11.0886 22.984 10.5914 22.264 10.3771C21.44 10.1371 19.352 10 16 10L14.728 10.0514C13.848 10.0514 12.896 10.0771 11.856 10.1371C10.8 10.1886 10.112 10.2657 9.736 10.3771C9.016 10.5914 8.552 11.0886 8.352 11.86C8.128 12.7429 8 14.1229 8 16L8.048 16.72C8.048 17.2343 8.072 17.8257 8.128 18.5114C8.176 19.1971 8.248 19.7371 8.352 20.14C8.552 20.9114 9.016 21.4086 9.736 21.6229C10.56 21.8629 12.648 22 16 22L17.272 21.9486C18.152 21.9486 19.104 21.9229 20.144 21.8629C21.2 21.8114 21.888 21.7343 22.264 21.6229C22.984 21.4086 23.448 20.9114 23.648 20.14C23.872 19.2571 24 17.8771 24 16L23.952 15.28C23.952 14.7657 23.928 14.1743 23.872 13.4886Z" fill="white"/>
</svg>
